<svg width="32" height="32" viewBox="0 0 32 32" fill="none" xmlns="http://www.w3.org/2000/svg">
<mask id="mask0_680_1412" style="mask-type:alpha" maskUnits="userSpaceOnUse" x="0" y="0" width="32" height="32">
<rect x="0.0585938" width="31.9328" height="32" fill="#D9D9D9"/>
</mask>
<g mask="url(#mask0_680_1412)">
<path d="M26.0606 27.4358L17.7038 19.0615C17.0385 19.6119 16.2735 20.0426 15.4086 20.3538C14.5438 20.6649 13.6491 20.8204 12.7246 20.8204C10.4505 20.8204 8.52582 20.0314 6.95065 18.4533C5.37548 16.8752 4.58789 14.947 4.58789 12.6687C4.58789 10.3904 5.37528 8.46151 6.95005 6.88202C8.52482 5.30255 10.449 4.51282 12.7225 4.51282C14.996 4.51282 16.9208 5.30206 18.497 6.88055C20.0732 8.45904 20.8613 10.3877 20.8613 12.6666C20.8613 13.6188 20.7018 14.5282 20.3828 15.3948C20.0638 16.2615 19.6382 17.0153 19.106 17.6564L27.4627 26.0307L26.0606 27.4358ZM12.7246 18.8205C14.4389 18.8205 15.891 18.2243 17.0808 17.032C18.2706 15.8397 18.8655 14.3846 18.8655 12.6666C18.8655 10.9487 18.2706 9.49353 17.0808 8.30122C15.891 7.10891 14.4389 6.51275 12.7246 6.51275C11.0102 6.51275 9.55814 7.10891 8.36833 8.30122C7.17855 9.49353 6.58366 10.9487 6.58366 12.6666C6.58366 14.3846 7.17855 15.8397 8.36833 17.032C9.55814 18.2243 11.0102 18.8205 12.7246 18.8205Z" fill="#222222"/>
</g>
</svg>
