<svg xmlns="http://www.w3.org/2000/svg" width="200" height="179" fill="none"><g clip-path="url(#a)"><path fill-rule="evenodd" clip-rule="evenodd" d="m80.682 2.26-1.032.183a4.666 4.666 0 0 0-2.665 1.26 2.234 2.234 0 0 0-.67 1.994c.19.815.577 1.572 1.126 2.203.533.688.96 1.452 1.266 2.266a55.76 55.76 0 0 1 1.4 6.495c.65 3.583 1 5.77 1.05 6.559a15.337 15.337 0 0 1-.196 3.114 9.84 9.84 0 0 0-.108 2.836c.376 2.064 1.93 2.849 4.666 2.355l.557-.101c4.03-.751 5.847-2.228 5.45-4.431a19.572 19.572 0 0 0-1.633-4.432 25.954 25.954 0 0 1-1.994-6.393c-.426-2.351-.494-4.121-.203-5.311a5.418 5.418 0 0 1 1.526-2.78 4.216 4.216 0 0 1 2-1.152l3.698-.278a2.533 2.533 0 0 0 1.937-1.583 4.367 4.367 0 0 0 .348-2.627A2.83 2.83 0 0 0 95.856.462 4.298 4.298 0 0 0 92.793.12a7.324 7.324 0 0 0-3.077 1.203c-.74.54-1.448 1.12-2.12 1.74-.379.42-.843.753-1.362.976-.249.05-.54-.12-.873-.513-1.026-1.21-2.59-1.627-4.679-1.266Zm-2.456 27.037c.983 1.481.14 3.119-2.532 4.912a6.414 6.414 0 0 1-2.982.994 6.88 6.88 0 0 0-2.051.38l-1.963 2.785a12.843 12.843 0 0 1-3.33 3.412l-.67.45a9.674 9.674 0 0 1-4.489 1.646 7.761 7.761 0 0 1-4.431-.83c-1.975-1.013-4.853-4.357-8.635-10.033a52.893 52.893 0 0 0-3.165-4.507 14.024 14.024 0 0 0-1.944-1.621 7.702 7.702 0 0 1-1.899-1.855 1.728 1.728 0 0 1-.183-1.791 6.007 6.007 0 0 1 2.14-2.032l.67-.45c1.665-1.108 3.102-1.266 4.324-.43.735.493 2.678 3.102 5.83 7.824 3.153 4.723 5.35 7.45 6.59 8.185 1.583.97 3.23.882 4.938-.266a6.128 6.128 0 0 0 2.083-2.36c.495-.912.7-1.952.589-2.983-.173-1.595-1.484-4.228-3.931-7.9a40.142 40.142 0 0 0-3.533-4.602 30.217 30.217 0 0 1-2.45-2.975c-1.224-1.832-.38-3.718 2.532-5.66 1.431-.95 2.634-.955 3.596 0 .279.27 1.874 2.592 4.786 6.964 2.912 4.372 4.957 7.189 6.134 8.45 1.178 1.267 2.045 2.162 2.602 2.685a8.49 8.49 0 0 1 1.013 1.057l.361.55ZM28.664 49.086c1.254.417 3.95 1.992 8.09 4.722 4.14 2.735 7.279 4.163 9.414 4.286 2.815.143 5.052-1.051 6.71-3.583l.678-1.026a8.597 8.597 0 0 0 1.507-3.836c.126-1.266-.152-2.083-.836-2.532l-.405-.266a2.032 2.032 0 0 0-2.267-.095c-.088.063-.651.665-1.683 1.817-1.034 1.169-1.954 1.753-2.76 1.753-1.288.038-3.476-.962-6.565-3l-1.475-.975a24.045 24.045 0 0 1-1.216-.836l-.506-.367c-2.507-1.735-3.919-2.958-4.235-3.672-.317-.713-.207-1.768.329-3.165.44-.951.69-1.979.74-3.026a2.361 2.361 0 0 0-1.265-1.734c-.81-.51-1.849-.196-3.115.943-1.266 1.14-2.292 1.762-3.077 1.867a7.09 7.09 0 0 1-3.304-.708 8.62 8.62 0 0 0-2.843-.836 2.938 2.938 0 0 0-2.298 1.52l-.278.423a2.317 2.317 0 0 0-.279 2.241c.585 1.15 1.35 2.2 2.267 3.108.704.716 1.34 1.496 1.899 2.33.107.487.118.99.031 1.481-.063.739-.095 1.195-.095 1.368a2.407 2.407 0 0 0 1.266 1.969 2.95 2.95 0 0 0 2.913.158 3.799 3.799 0 0 1 2.658-.33Zm13.75 14.218c1.747.337 2.317 2.095 1.71 5.273a6.532 6.532 0 0 1-1.38 2.817 6.684 6.684 0 0 0-1.172 1.728l.633 3.355c.322 1.555.356 3.155.102 4.722l-.152.792a9.717 9.717 0 0 1-1.982 4.355 7.717 7.717 0 0 1-3.678 2.532c-2.11.697-6.512.403-13.205-.88-3.026-.576-4.837-.873-5.444-.892-.85.008-1.698.093-2.533.253a7.674 7.674 0 0 1-2.665.063 1.716 1.716 0 0 1-1.405-1.12 6.013 6.013 0 0 1 .05-2.957l.152-.79c.374-1.963 1.266-3.09 2.723-3.388.873-.177 4.095.268 9.666 1.336 5.571 1.068 9.065 1.422 10.484 1.064 1.797-.452 2.888-1.688 3.272-3.71a6.121 6.121 0 0 0-.221-3.165 5.14 5.14 0 0 0-1.716-2.532c-1.266-.992-4.062-1.904-8.388-2.735a40.833 40.833 0 0 0-5.76-.709 31.744 31.744 0 0 1-3.837-.342c-2.165-.422-2.916-2.346-2.253-5.773.322-1.684 1.158-2.532 2.532-2.57.384 0 3.159.491 8.324 1.475 5.166.983 8.61 1.5 10.332 1.55 1.722.047 2.965.047 3.728 0a9.588 9.588 0 0 1 1.482 0l.601.248Zm3.216 48.864.21.784c.41 1.526.379 2.71-.09 3.564-.468.855-1.437 1.475-2.855 1.862-.952.108-1.911.134-2.867.076-1.653-.024-3.301.189-4.894.633l-4.267 1.095-2.633.728-7.084 1.829-4.431 1.197a21.941 21.941 0 0 0-4.622 1.899 20.27 20.27 0 0 1-3.234 1.538c-.906.247-1.684-.373-2.33-1.848-1.435-3.322-3.265-9.08-5.489-17.276l-.487-1.798c-.536-1.988-.684-3.361-.443-4.121.234-.753.956-1.298 2.152-1.62l.81-.222c1.12-.304 1.963-.253 2.533.152a2.83 2.83 0 0 1 1.14 1.621c.253 1.295.387 2.611.398 3.931.085 1.993.395 3.97.924 5.893.54 1.988 1.256 3.271 2.146 3.849.89.578 2.579.53 5.065-.146 2.475-.671 3.975-1.342 4.482-2.019.506-.677.538-1.855.082-3.532l-2.051-5.628c-.625-2.317.443-3.847 3.203-4.589 1.038-.285 1.836-.203 2.38.253a5.273 5.273 0 0 1 1.361 2.671l.12.684c.083.456.19.911.31 1.374.811 2.992 1.879 4.828 3.204 5.507 1.325.679 4.069.456 8.23-.671l3.798-1.266c2.646-.709 4.39.489 5.23 3.596Zm71.965-93.924c-4.709-.975-7.21-.764-7.501.633a5.242 5.242 0 0 0 1.266 4.818c1.211 1.354 3.138 2.304 5.78 2.848 1.334.215 2.694.228 4.032.038a13.343 13.343 0 0 1 3.798 0c1.077.228 1.438 1.197 1.077 2.918-.222 1.102-1.621 1.9-4.185 2.412a17.79 17.79 0 0 1-7.166.076l-.677-.139a17.235 17.235 0 0 1-6.128-2.412 12.624 12.624 0 0 1-3.799-3.678 12.968 12.968 0 0 1-1.734-5.013 17.97 17.97 0 0 1 .24-6.407l.146-.709c.954-4.617 2.872-8.016 5.754-10.198a12.357 12.357 0 0 1 5.28-2.292 15.556 15.556 0 0 1 6.046.07l1.38.291c1.482.325 2.896.905 4.178 1.716a10.086 10.086 0 0 1 4.786 7.482c.254 1.508.237 3.05-.051 4.552l-.133.633c-.411 1.981-1.31 3.09-2.709 3.33-1.747.329-4.974.006-9.68-.969Zm5.635-5.419.038-.177v-.184l.069-.322a2.757 2.757 0 0 1 .045-.513 4.064 4.064 0 0 0-.899-3.349 5.066 5.066 0 0 0-3.045-2.026l-.88-.183a5.407 5.407 0 0 0-4.533 1.057 6.409 6.409 0 0 0-2.532 3.912l-.095.469c-.12.588.202.955.962 1.114l.715.24 1.849.386h.158l5.432.817.633.07c1.16.24 1.855-.197 2.083-1.31Zm26.537 38.065a.354.354 0 0 0 .038.082c1.608 3.579 3.811 4.758 6.609 3.539.631-.325 1.24-.69 1.823-1.096a50.644 50.644 0 0 1 4.799-2.595c2.308-1.144 5.248-2.517 8.818-4.121 3.571-1.604 5.447-2.194 5.628-1.773.308.642-2.013 4.875-6.963 12.7-.627.987-2.134 3.228-4.501 6.735a60.676 60.676 0 0 0-4.324 6.963 7.54 7.54 0 0 0 0 6.508c.401.894 1.196 1.228 2.386 1 1.995-.393 6.755-2.241 14.288-5.653 7.534-3.412 11.642-5.153 12.275-5.311a40.855 40.855 0 0 1 2.532-.526l1.096-.196a13.389 13.389 0 0 0 2.215-.563l.969-.4c1.564-.696 2.399-1.658 2.532-2.873a5.767 5.767 0 0 0-.684-2.78 4.638 4.638 0 0 0-2.032-2.398 2.75 2.75 0 0 0-2.456-.064c-.823.374-2.057 1.045-3.71 2.026a62.251 62.251 0 0 1-6.197 3.165 395.395 395.395 0 0 1-4.881 2.159l-2.273.95c-3.551 1.62-5.412 2.24-5.564 1.898-.106-.24 2.521-4.443 7.881-12.61a94.492 94.492 0 0 0 6.749-12.027 14.812 14.812 0 0 0 1.411-4.545 7.761 7.761 0 0 0-.696-4.109c-.616-1.376-1.158-2.184-1.627-2.424a1.601 1.601 0 0 0-1.431-.032c-.854.494-1.637 1.1-2.329 1.804a15.034 15.034 0 0 1-2.792 2.12c-.793.431-3.26 1.577-7.4 3.438l-3.514 1.507-2.323 1.044-5.767 2.532c-2.684 1.203-4.535 1.868-5.552 1.995a19.121 19.121 0 0 0-4.286.835c-1.184.564-1.437 1.564-.747 3.096Zm11.838 57.948c-1.688-.19-2.386-1.636-2.095-4.337a7.543 7.543 0 0 1 1.177-3.5 6.07 6.07 0 0 0 1.095-2.665c0-.06-.263-1.079-.791-3.058a15.052 15.052 0 0 1-.563-5.393 9.45 9.45 0 0 1 2.962-6.33 7.774 7.774 0 0 1 6.249-1.9l.715.076c5.609.562 8.377 5.204 8.306 13.927-.05 1.113.009 2.228.177 3.33a2.491 2.491 0 0 0 2.431 2.025 3.632 3.632 0 0 0 3.311-1.329c.569-.726.901-1.61.949-2.532.114-1.095-.183-2.728-.88-4.9-.696-2.171-1-3.678-.911-4.532a2.42 2.42 0 0 1 1.095-1.9 3.367 3.367 0 0 1 2.247-.493c1.45.145 2.532 1.43 3.292 3.868.745 2.528.98 5.179.69 7.799-.532 5.292-2.264 8.755-5.197 10.388a9.793 9.793 0 0 1-4.273 1.266 54.205 54.205 0 0 1-7.705-.393 53.07 53.07 0 0 0-6.571-.436 9.699 9.699 0 0 0-2.64.683 5.45 5.45 0 0 1-2.449.481l-.621-.145Zm3.691-13.7a4.202 4.202 0 0 0 1.044 3.165 3.867 3.867 0 0 0 2.533 1.609c.163.05.33.086.5.108l1.038.164.538.057.684.095.531.057c1.267.127 1.959-.346 2.077-1.418l.101-1.044v-.184l.038-.36c.228-2.288.004-4.118-.671-5.49a3.647 3.647 0 0 0-3.013-2.26l-.716-.075a4.222 4.222 0 0 0-2.956.779 3.286 3.286 0 0 0-1.462 2.424l-.178.86-.094.697c.022.272.024.545.006.817Zm12.395 26.133c-1.296-.266-4.146-1.532-8.553-3.799-4.41-2.266-7.674-3.344-9.793-3.234-2.811.173-4.906 1.601-6.286 4.285l-.563 1.095a8.7 8.7 0 0 0-1.083 3.976c.006 1.234.374 2.032 1.108 2.405l.424.222a2.04 2.04 0 0 0 2.266-.146c.083-.088.602-.728 1.482-1.987.88-1.26 1.734-1.938 2.532-2.045 1.283-.169 3.566.591 6.85 2.279l1.576.804c.155.086.306.168.453.248v.001c.294.16.568.31.813.453l.544.311c2.718 1.392 4.267 2.437 4.647 3.133.38.696.38 1.766 0 3.21a8.088 8.088 0 0 0-.412 3.095 2.373 2.373 0 0 0 1.444 1.583c.854.424 1.842 0 2.981-1.266 1.14-1.266 2.09-2.001 2.862-2.184a7.022 7.022 0 0 1 3.361.342 8.603 8.603 0 0 0 2.906.519 2.966 2.966 0 0 0 2.114-1.748l.228-.455a2.31 2.31 0 0 0 .038-2.254 12.23 12.23 0 0 0-2.532-2.861 15.886 15.886 0 0 1-2.146-2.115 3.897 3.897 0 0 1-.196-1.462c-.004-.492-.025-.86-.039-1.103a6.112 6.112 0 0 1-.012-.277 2.396 2.396 0 0 0-1.494-1.81 2.925 2.925 0 0 0-1.476-.311 2.927 2.927 0 0 0-1.436.463 3.802 3.802 0 0 1-2.608.633Zm-47.137 25.036c-1.139-1.367-.464-3.087 2.026-5.159a6.523 6.523 0 0 1 2.855-1.311 6.604 6.604 0 0 0 2-.595l1.653-2.975a12.934 12.934 0 0 1 2.912-3.716l.633-.519a9.698 9.698 0 0 1 4.285-2.114 7.766 7.766 0 0 1 4.47.354c2.072.798 5.29 3.815 9.654 9.053 1.969 2.361 3.165 3.741 3.646 4.14a13.951 13.951 0 0 0 2.108 1.405 7.747 7.747 0 0 1 2.108 1.64 1.728 1.728 0 0 1 .374 1.76 6.044 6.044 0 0 1-1.899 2.253l-.633.519c-1.532 1.266-2.948 1.562-4.248.886-.789-.422-3.001-2.808-6.635-7.159-3.633-4.351-6.113-6.839-7.438-7.464-1.671-.791-3.304-.525-4.881.792a6.166 6.166 0 0 0-1.823 2.57 5.15 5.15 0 0 0-.266 3.032c.342 1.561 1.927 4.039 4.754 7.432a39.93 39.93 0 0 0 4.008 4.197 33.525 33.525 0 0 1 2.753 2.697c1.414 1.688.781 3.652-1.899 5.893-1.323 1.102-2.532 1.235-3.57.399-.304-.241-2.14-2.378-5.508-6.413-3.368-4.034-5.708-6.617-7.02-7.748-1.304-1.127-2.26-1.924-2.868-2.393a8.579 8.579 0 0 1-1.127-.949l-.424-.507Zm.488 27.145 1.012-.298a4.677 4.677 0 0 0 2.514-1.5 2.236 2.236 0 0 0 .449-2.058 5.206 5.206 0 0 0-1.298-2.07 8.552 8.552 0 0 1-1.532-2.108 56.958 56.958 0 0 1-2.089-6.33c-1.038-3.482-1.627-5.621-1.766-6.4a16.045 16.045 0 0 1-.139-3.121 9.639 9.639 0 0 0-.203-2.829c-.595-2.013-2.224-2.625-4.887-1.836l-.544.164c-3.934 1.161-5.58 2.815-4.938 4.963a19.137 19.137 0 0 0 2.102 4.235 25.726 25.726 0 0 1 2.665 6.141c.683 2.291.943 4.039.778 5.254a5.36 5.36 0 0 1-1.209 2.925 4.334 4.334 0 0 1-1.861 1.367l-3.653.677a2.535 2.535 0 0 0-1.747 1.785 4.356 4.356 0 0 0-.089 2.653 2.833 2.833 0 0 0 1.558 1.823 4.29 4.29 0 0 0 3.083 0 7.332 7.332 0 0 0 2.924-1.513 25.417 25.417 0 0 0 1.9-1.956 3.93 3.93 0 0 1 1.266-1.12c.24-.076.544.063.918.411 1.152 1.076 2.747 1.323 4.786.741Zm-38.433-11.908c4.786.46 7.248-.025 7.388-1.456a5.236 5.236 0 0 0-1.754-4.659c-1.342-1.215-3.357-1.952-6.046-2.209a13.245 13.245 0 0 0-4.02.392 13.039 13.039 0 0 1-3.798.412c-1.089-.108-1.557-1.032-1.386-2.786.108-1.114 1.412-2.057 3.906-2.842a17.904 17.904 0 0 1 7.115-.848l.69.069c2.202.172 4.35.763 6.331 1.741a12.604 12.604 0 0 1 4.159 3.254 12.915 12.915 0 0 1 2.26 4.799c.536 2.088.688 4.257.449 6.4l-.069.715c-.456 4.693-1.999 8.28-4.628 10.761a12.351 12.351 0 0 1-5 2.843c-1.95.587-3.996.783-6.021.576l-1.406-.133a12.978 12.978 0 0 1-4.336-1.266 10.066 10.066 0 0 1-5.565-6.926 13.056 13.056 0 0 1-.436-4.532l.07-.633c.19-2.013.968-3.21 2.335-3.602 1.743-.511 4.997-.534 9.762-.07Zm-5.026 5.989v.361l-.032.329c.014.17.014.342 0 .513a4.028 4.028 0 0 0 1.266 3.234 5.026 5.026 0 0 0 3.241 1.684l.893.089a5.406 5.406 0 0 0 4.431-1.532 6.451 6.451 0 0 0 2.12-4.159l.045-.481c.057-.595-.297-.931-1.076-1.007l-.74-.164-1.9-.178h-.152l-5.488-.227h-.633c-1.203-.093-1.862.419-1.976 1.538Zm-18.16 1.26a7.618 7.618 0 0 0 2.358-2.628 7.888 7.888 0 0 0 .71-6.457c-.475-1.5-1.729-3.405-3.76-5.735-2.027-2.313-3.166-3.68-3.42-4.102-.936-1.526-1.145-2.754-.632-3.69a2.91 2.91 0 0 1 2.266-1.596 5.697 5.697 0 0 1 3.393.855 12.658 12.658 0 0 1 3.912 3.899c1.338 1.887 2.374 3.041 3.109 3.463a1.676 1.676 0 0 0 1.342-.139 3.335 3.335 0 0 0 1.601-1.602l.33-.633c.763-1.38.284-3.036-1.438-4.969-1.27-1.427-3.515-3.026-6.735-4.799l-.71-.392a11.49 11.49 0 0 0-8.716-1.203 8.466 8.466 0 0 0-5.066 4.118 8.479 8.479 0 0 0-.632 6.498c.562 1.633 1.918 3.676 4.07 6.128a42.391 42.391 0 0 1 3.552 4.349 3.338 3.338 0 0 1 .127 3.317 2.367 2.367 0 0 1-1.741 1.076 4.544 4.544 0 0 1-3.051-.702 12.634 12.634 0 0 1-3.678-3.482c-1.285-1.684-2.19-2.659-2.722-2.95a1.792 1.792 0 0 0-.901-.197 1.794 1.794 0 0 0-.878.279 4.392 4.392 0 0 0-1.64 1.804c-1.41 2.558 1.03 5.565 7.318 9.021 2.98 1.638 5.76 2.222 8.344 1.754a7.621 7.621 0 0 0 3.288-1.285Z" fill="#FFDCD4"/></g><defs><clipPath id="a"><path fill="#fff" d="M0 0h200v178.776H0z"/></clipPath></defs></svg>